<svg version="1.1" viewBox="0.0 0.0 960.0 960.0" fill="none" stroke="none" stroke-linecap="square" stroke-miterlimit="10" xmlns:xlink="http://www.w3.org/1999/xlink" xmlns="http://www.w3.org/2000/svg"><clipPath id="p.0"><path d="m0 0l960.0 0l0 960.0l-960.0 0l0 -960.0z" clip-rule="nonzero"/></clipPath><g clip-path="url(#p.0)"><path fill="#000000" fill-opacity="0.0" d="m0 0l960.0 0l0 960.0l-960.0 0z" fill-rule="evenodd"/><path fill="#666666" d="m48.505142 176.62843l0 0c0 -70.76054 57.362755 -128.12329 128.12329 -128.12329l512.47784 0l0 0c33.980408 0 66.56909 13.498665 90.59686 37.526443c24.027771 24.027779 37.52643 56.61644 37.52643 90.59685l0 512.47784c0 70.76056 -57.362732 128.12329 -128.12329 128.12329l-512.47784 0c-70.76054 0 -128.12329 -57.362732 -128.12329 -128.12329z" fill-rule="evenodd"/><path stroke="#000000" stroke-width="16.0" stroke-linejoin="round" stroke-linecap="butt" d="m48.505142 176.62843l0 0c0 -70.76054 57.362755 -128.12329 128.12329 -128.12329l512.47784 0l0 0c33.980408 0 66.56909 13.498665 90.59686 37.526443c24.027771 24.027779 37.52643 56.61644 37.52643 90.59685l0 512.47784c0 70.76056 -57.362732 128.12329 -128.12329 128.12329l-512.47784 0c-70.76054 0 -128.12329 -57.362732 -128.12329 -128.12329z" fill-rule="evenodd"/><path fill="#666666" d="m95.636375 223.75967l0 0c0 -70.760544 57.362755 -128.12329 128.12329 -128.12329l512.4778 0l0 0c33.980408 0 66.56909 13.498665 90.59686 37.52645c24.027771 24.027771 37.52643 56.61644 37.52643 90.59685l0 512.4778c0 70.76056 -57.362732 128.12329 -128.12329 128.12329l-512.4778 0c-70.760544 0 -128.12329 -57.362732 -128.12329 -128.12329z" fill-rule="evenodd"/><path stroke="#000000" stroke-width="16.0" stroke-linejoin="round" stroke-linecap="butt" d="m95.636375 223.75967l0 0c0 -70.760544 57.362755 -128.12329 128.12329 -128.12329l512.4778 0l0 0c33.980408 0 66.56909 13.498665 90.59686 37.52645c24.027771 24.027771 37.52643 56.61644 37.52643 90.59685l0 512.4778c0 70.76056 -57.362732 128.12329 -128.12329 128.12329l-512.4778 0c-70.760544 0 -128.12329 -57.362732 -128.12329 -128.12329z" fill-rule="evenodd"/><path fill="#666666" d="m142.76761 270.8909l0 0c0 -70.760544 57.362747 -128.12329 128.12329 -128.12329l512.4778 0l0 0c33.980408 0 66.56909 13.498657 90.59686 37.526443c24.027771 24.027786 37.52643 56.61644 37.52643 90.59685l0 512.4778c0 70.76056 -57.362732 128.12329 -128.12329 128.12329l-512.4778 0c-70.760544 0 -128.12329 -57.362732 -128.12329 -128.12329z" fill-rule="evenodd"/><path stroke="#000000" stroke-width="16.0" stroke-linejoin="round" stroke-linecap="butt" d="m142.76761 270.8909l0 0c0 -70.760544 57.362747 -128.12329 128.12329 -128.12329l512.4778 0l0 0c33.980408 0 66.56909 13.498657 90.59686 37.526443c24.027771 24.027786 37.52643 56.61644 37.52643 90.59685l0 512.4778c0 70.76056 -57.362732 128.12329 -128.12329 128.12329l-512.4778 0c-70.760544 0 -128.12329 -57.362732 -128.12329 -128.12329z" fill-rule="evenodd"/><path fill="#000000" d="m278.028 439.51044q-4.40625 2.765625 -9.375 1.796875q-4.96875 -0.96875 -8.421875 -4.6875q-3.453125 -3.734375 -3.453125 -9.25q0 -7.734375 6.90625 -12.140625l93.015625 -55.75l0 11.859375l-93.015625 -55.203125q-6.90625 -4.140625 -6.90625 -12.40625q0 -8.015625 6.890625 -11.734375q6.90625 -3.734375 14.359375 0.140625l101.84375 61.265625q7.453125 5.25 7.453125 12.421875q0 8.0 -7.453125 12.6875l-101.84375 61.0zm150.97202 0q-4.40625 2.765625 -9.375 1.796875q-4.96875 -0.96875 -8.421875 -4.6875q-3.453125 -3.734375 -3.453125 -9.25q0 -7.734375 6.90625 -12.140625l93.015625 -55.75l0 11.859375l-93.015625 -55.203125q-6.90625 -4.140625 -6.90625 -12.40625q0 -8.015625 6.890625 -11.734375q6.90625 -3.734375 14.359375 0.140625l101.84372 61.265625q7.453125 5.25 7.453125 12.421875q0 8.0 -7.453125 12.6875l-101.84372 61.0zm150.97202 0q-4.40625 2.765625 -9.375 1.796875q-4.96875 -0.96875 -8.421875 -4.6875q-3.453125 -3.734375 -3.453125 -9.25q0 -7.734375 6.90625 -12.140625l93.015625 -55.75l0 11.859375l-93.015625 -55.203125q-6.90625 -4.140625 -6.90625 -12.40625q0 -8.015625 6.890625 -11.734375q6.90625 -3.734375 14.359375 0.140625l101.84375 61.265625q7.453125 5.25 7.453125 12.421875q0 8.0 -7.453125 12.6875l-101.84375 61.0z" fill-rule="nonzero"/><path fill="#000000" d="m246.29364 566.32294q-6.078125 0 -10.078125 -3.859375q-4.0 -3.875 -4.0 -9.9375q0 -6.359375 4.0 -10.21875q4.0 -3.859375 10.078125 -3.859375l258.60938 0q6.078125 0 10.078125 3.859375q4.0 3.859375 4.0 10.21875q0 6.0625 -4.0 9.9375q-4.0 3.859375 -10.078125 3.859375l-258.60938 0zm258.888 0q-6.078125 0 -10.078125 -3.859375q-4.0 -3.875 -4.0 -9.9375q0 -6.359375 4.0 -10.21875q4.0 -3.859375 10.078125 -3.859375l258.60938 0q6.078125 0 10.078125 3.859375q4.0 3.859375 4.0 10.21875q0 6.0625 -4.0 9.9375q-4.0 3.859375 -10.078125 3.859375l-258.60938 0z" fill-rule="nonzero"/><path fill="#000000" d="m246.29364 649.32294q-6.078125 0 -10.078125 -3.859375q-4.0 -3.875 -4.0 -9.9375q0 -6.359375 4.0 -10.21875q4.0 -3.859375 10.078125 -3.859375l258.60938 0q6.078125 0 10.078125 3.859375q4.0 3.859375 4.0 10.21875q0 6.0625 -4.0 9.9375q-4.0 3.859375 -10.078125 3.859375l-258.60938 0zm258.888 0q-6.078125 0 -10.078125 -3.859375q-4.0 -3.875 -4.0 -9.9375q0 -6.359375 4.0 -10.21875q4.0 -3.859375 10.078125 -3.859375l258.60938 0q6.078125 0 10.078125 3.859375q4.0 3.859375 4.0 10.21875q0 6.0625 -4.0 9.9375q-4.0 3.859375 -10.078125 3.859375l-258.60938 0z" fill-rule="nonzero"/><path fill="#000000" d="m246.29364 732.32294q-6.078125 0 -10.078125 -3.859375q-4.0 -3.875 -4.0 -9.9375q0 -6.359375 4.0 -10.21875q4.0 -3.859375 10.078125 -3.859375l258.60938 0q6.078125 0 10.078125 3.859375q4.0 3.859375 4.0 10.21875q0 6.0625 -4.0 9.9375q-4.0 3.859375 -10.078125 3.859375l-258.60938 0z" fill-rule="nonzero"/></g></svg>