<svg version="1.1" viewBox="0.0 0.0 960.0 960.0" fill="none" stroke="none" stroke-linecap="square" stroke-miterlimit="10" xmlns:xlink="http://www.w3.org/1999/xlink" xmlns="http://www.w3.org/2000/svg"><clipPath id="p.0"><path d="m0 0l960.0 0l0 960.0l-960.0 0l0 -960.0z" clip-rule="nonzero"/></clipPath><g clip-path="url(#p.0)"><path fill="#000000" fill-opacity="0.0" d="m0 0l960.0 0l0 960.0l-960.0 0z" fill-rule="evenodd"/><path fill="#666666" d="m92.52768 207.57985l0 0c0 -63.54155 51.51062 -115.05217 115.05217 -115.05217l460.1949 0l0 0c30.513733 0 59.77771 12.121536 81.35419 33.698006c21.576477 21.57647 33.697998 50.84043 33.697998 81.354164l0 460.1949c0 63.541565 -51.51062 115.052185 -115.052185 115.052185l-460.1949 0c-63.54155 0 -115.05217 -51.51062 -115.05217 -115.052185z" fill-rule="evenodd"/><path stroke="#000000" stroke-width="16.0" stroke-linejoin="round" stroke-linecap="butt" d="m92.52768 207.57985l0 0c0 -63.54155 51.51062 -115.05217 115.05217 -115.05217l460.1949 0l0 0c30.513733 0 59.77771 12.121536 81.35419 33.698006c21.576477 21.57647 33.697998 50.84043 33.697998 81.354164l0 460.1949c0 63.541565 -51.51062 115.052185 -115.052185 115.052185l-460.1949 0c-63.54155 0 -115.05217 -51.51062 -115.05217 -115.052185z" fill-rule="evenodd"/><path fill="#666666" d="m134.85088 249.90305l0 0c0 -63.541565 51.510605 -115.05217 115.05217 -115.05217l460.19485 0l0 0c30.513733 0 59.77771 12.121521 81.35419 33.697998c21.576477 21.576462 33.697998 50.84044 33.697998 81.35417l0 460.19485c0 63.541565 -51.51062 115.052185 -115.052185 115.052185l-460.19485 0c-63.541565 0 -115.05217 -51.51062 -115.05217 -115.052185z" fill-rule="evenodd"/><path stroke="#000000" stroke-width="16.0" stroke-linejoin="round" stroke-linecap="butt" d="m134.85088 249.90305l0 0c0 -63.541565 51.510605 -115.05217 115.05217 -115.05217l460.19485 0l0 0c30.513733 0 59.77771 12.121521 81.35419 33.697998c21.576477 21.576462 33.697998 50.84044 33.697998 81.35417l0 460.19485c0 63.541565 -51.51062 115.052185 -115.052185 115.052185l-460.19485 0c-63.541565 0 -115.05217 -51.51062 -115.05217 -115.052185z" fill-rule="evenodd"/><path fill="#666666" d="m177.17406 292.22623l0 0c0 -63.541565 51.510605 -115.05217 115.05217 -115.05217l460.19485 0l0 0c30.513733 0 59.77771 12.121536 81.35419 33.697998c21.576477 21.576462 33.697998 50.84044 33.697998 81.35417l0 460.19485c0 63.541565 -51.51062 115.052185 -115.052185 115.052185l-460.19485 0c-63.541565 0 -115.05217 -51.51062 -115.05217 -115.052185z" fill-rule="evenodd"/><path stroke="#000000" stroke-width="16.0" stroke-linejoin="round" stroke-linecap="butt" d="m177.17406 292.22623l0 0c0 -63.541565 51.510605 -115.05217 115.05217 -115.05217l460.19485 0l0 0c30.513733 0 59.77771 12.121536 81.35419 33.697998c21.576477 21.576462 33.697998 50.84044 33.697998 81.35417l0 460.19485c0 63.541565 -51.51062 115.052185 -115.052185 115.052185l-460.19485 0c-63.541565 0 -115.05217 -51.51062 -115.05217 -115.052185z" fill-rule="evenodd"/><path fill="#000000" d="m462.74667 413.6049l-45.734375 0q-0.65625 10.75 -3.59375 18.40625q-2.921875 7.640625 -7.96875 12.515625q-5.046875 4.890625 -12.21875 7.171875q-7.15625 2.265625 -16.09375 2.265625q-6.6875 0 -12.140625 -1.546875q-5.4375 -1.546875 -9.84375 -4.796875q-4.0625 -2.921875 -7.234375 -7.3125q-3.171875 -4.40625 -5.453125 -10.09375q-3.25 -8.3125 -4.796875 -19.453125q-1.546875 -11.15625 -1.546875 -25.3125l0 -32.21875q0 -10.421875 0.96875 -19.453125q0.984375 -9.03125 3.09375 -16.515625q2.765625 -9.609375 7.40625 -16.84375q4.640625 -7.25 11.3125 -11.15625q3.90625 -2.28125 8.546875 -3.421875q4.640625 -1.140625 10.0 -1.140625q10.09375 0 17.328125 2.6875q7.25 2.6875 12.140625 7.890625q4.71875 5.375 7.234375 13.359375q2.53125 7.96875 3.171875 18.546875l45.578125 0q-1.625 -18.5625 -7.8125 -33.359375q-6.1875 -14.8125 -16.921875 -25.078125q-10.75 -10.25 -25.96875 -15.781235q-15.21875 -5.53125 -34.75 -5.53125q-13.171875 0 -24.65625 3.34375q-11.46875 3.328125 -21.078125 9.51561q-10.734375 7.3125 -19.203125 17.90625q-8.453125 10.578125 -13.671875 24.078125q-4.546875 11.078125 -6.828125 24.015625q-2.28125 12.9375 -2.28125 27.25l0 31.90625q0 15.296875 2.515625 28.96875q2.53125 13.671875 7.25 25.0625q4.875 11.390625 11.953125 20.84375q7.09375 9.4375 16.203125 16.109375q9.921875 7.15625 22.375 10.984375q12.453125 3.828125 27.109375 3.828125q18.546875 0 33.84375 -5.453125q15.296875 -5.453125 26.375 -15.546875q11.0625 -10.09375 17.65625 -24.40625q6.59375 -14.328125 7.734375 -32.234375zm200.02945 0l-45.734375 0q-0.65625 10.75 -3.59375 18.40625q-2.921875 7.640625 -7.96875 12.515625q-5.046875 4.890625 -12.21875 7.171875q-7.15625 2.265625 -16.09375 2.265625q-6.6875 0 -12.140625 -1.546875q-5.4375 -1.546875 -9.84375 -4.796875q-4.0625 -2.921875 -7.234375 -7.3125q-3.171875 -4.40625 -5.453125 -10.09375q-3.25 -8.3125 -4.796875 -19.453125q-1.546875 -11.15625 -1.546875 -25.3125l0 -32.21875q0 -10.421875 0.96875 -19.453125q0.984375 -9.03125 3.09375 -16.515625q2.765625 -9.609375 7.40625 -16.84375q4.640625 -7.25 11.3125 -11.15625q3.90625 -2.28125 8.546875 -3.421875q4.640625 -1.140625 10.0 -1.140625q10.09375 0 17.328125 2.6875q7.25 2.6875 12.140625 7.890625q4.71875 5.375 7.234375 13.359375q2.53125 7.96875 3.171875 18.546875l45.578125 0q-1.625 -18.5625 -7.8125 -33.359375q-6.1875 -14.8125 -16.921875 -25.078125q-10.75 -10.25 -25.96875 -15.781235q-15.21875 -5.53125 -34.75 -5.53125q-13.171875 0 -24.65625 3.34375q-11.46875 3.328125 -21.078125 9.51561q-10.734375 7.3125 -19.203125 17.90625q-8.4531555 10.578125 -13.6719055 24.078125q-4.546875 11.078125 -6.828125 24.015625q-2.28125 12.9375 -2.28125 27.25l0 31.90625q0 15.296875 2.515625 28.96875q2.53125 13.671875 7.25 25.0625q4.875 11.390625 11.953125 20.84375q7.0937805 9.4375 16.203156 16.109375q9.921875 7.15625 22.375 10.984375q12.453125 3.828125 27.109375 3.828125q18.546875 0 33.84375 -5.453125q15.296875 -5.453125 26.375 -15.546875q11.0625 -10.09375 17.65625 -24.40625q6.59375 -14.328125 7.734375 -32.234375z" fill-rule="nonzero"/><path fill="#000000" d="m276.87167 595.5168q-6.078125 0 -10.078125 -3.859375q-4.0 -3.875 -4.0 -9.9375q0 -6.359375 4.0 -10.21875q4.0 -3.859375 10.078125 -3.859375l258.6094 0q6.078125 0 10.078125 3.859375q4.0 3.859375 4.0 10.21875q0 6.0625 -4.0 9.9375q-4.0 3.859375 -10.078125 3.859375l-258.6094 0zm258.88803 0q-6.078125 0 -10.078125 -3.859375q-4.0 -3.875 -4.0 -9.9375q0 -6.359375 4.0 -10.21875q4.0 -3.859375 10.078125 -3.859375l258.60938 0q6.078125 0 10.078125 3.859375q4.0 3.859375 4.0 10.21875q0 6.0625 -4.0 9.9375q-4.0 3.859375 -10.078125 3.859375l-258.60938 0z" fill-rule="nonzero"/><path fill="#000000" d="m276.87167 678.5168q-6.078125 0 -10.078125 -3.859375q-4.0 -3.875 -4.0 -9.9375q0 -6.359375 4.0 -10.21875q4.0 -3.859375 10.078125 -3.859375l258.6094 0q6.078125 0 10.078125 3.859375q4.0 3.859375 4.0 10.21875q0 6.0625 -4.0 9.9375q-4.0 3.859375 -10.078125 3.859375l-258.6094 0zm258.88803 0q-6.078125 0 -10.078125 -3.859375q-4.0 -3.875 -4.0 -9.9375q0 -6.359375 4.0 -10.21875q4.0 -3.859375 10.078125 -3.859375l258.60938 0q6.078125 0 10.078125 3.859375q4.0 3.859375 4.0 10.21875q0 6.0625 -4.0 9.9375q-4.0 3.859375 -10.078125 3.859375l-258.60938 0z" fill-rule="nonzero"/><path fill="#000000" d="m276.87167 761.5168q-6.078125 0 -10.078125 -3.859375q-4.0 -3.875 -4.0 -9.9375q0 -6.359375 4.0 -10.21875q4.0 -3.859375 10.078125 -3.859375l258.6094 0q6.078125 0 10.078125 3.859375q4.0 3.859375 4.0 10.21875q0 6.0625 -4.0 9.9375q-4.0 3.859375 -10.078125 3.859375l-258.6094 0z" fill-rule="nonzero"/></g></svg>